<svg xmlns="http://www.w3.org/2000/svg" width="157.205" height="58" viewBox="0 0 157.205 58">
  <g id="logo_white" transform="translate(-467.795 -232)">
    <path id="Path_3" data-name="Path 3" d="M2.157,0H16.176V-1.737H4.194V-21.388H2.157ZM24.713-15.906c-4.733,0-7.309,3.744-7.309,8.178S19.98.449,24.713.449,32.023-3.3,32.023-7.729,29.446-15.906,24.713-15.906Zm0,1.588c3.625,0,5.422,3.3,5.422,6.59s-1.8,6.59-5.422,6.59-5.422-3.3-5.422-6.59S21.089-14.319,24.713-14.319ZM41.339-1.767c-3.475,0-5.092-3.026-5.092-6.141,0-3.205,1.5-6.411,5.092-6.411,3.565,0,4.973,3.385,4.973,6.411C46.311-4.763,44.6-1.767,41.339-1.767Zm6.86-13.69H46.311v2.666h-.06a5.439,5.439,0,0,0-4.913-3.115c-4.463,0-6.98,3.535-6.98,7.788,0,4.4,2.037,7.938,6.98,7.938a5.357,5.357,0,0,0,4.913-3.175h.06v2.1c0,3.774-1.5,5.841-4.973,5.841-2.1,0-4.1-.809-4.523-3.085H34.928c.27,3.3,3.325,4.673,6.411,4.673,5.063,0,6.83-2.816,6.86-7.429ZM51.4-19.651H64.524L50.445-1.8V0H67.1V-1.737H52.722L66.8-19.591v-1.8H51.4ZM82.588-7.219c.15-4.344-1.827-8.687-6.8-8.687-4.913,0-6.98,4.1-6.98,8.178,0,4.4,2.067,8.178,6.98,8.178,3.894,0,5.931-2.037,6.74-5.542H80.641c-.6,2.337-2.1,3.954-4.853,3.954-3.625,0-5.062-3.325-5.092-6.081ZM70.7-8.807c.3-2.816,2.007-5.512,5.092-5.512,3.055,0,4.823,2.666,4.913,5.512ZM98.434-7.219c.15-4.344-1.827-8.687-6.8-8.687-4.913,0-6.98,4.1-6.98,8.178,0,4.4,2.067,8.178,6.98,8.178,3.894,0,5.931-2.037,6.74-5.542H96.487c-.6,2.337-2.1,3.954-4.853,3.954-3.625,0-5.062-3.325-5.092-6.081ZM86.542-8.807c.3-2.816,2.007-5.512,5.092-5.512,3.055,0,4.823,2.666,4.913,5.512Z" transform="translate(465.638 268.388)" fill="#fff"/>
    <path id="Subtraction_6" data-name="Subtraction 6" d="M40.847,58A28.909,28.909,0,0,1,20.34,49.506c-.551-.551-1.087-1.132-1.594-1.726a19.112,19.112,0,0,0,15.7-14.949l11.973,0H50.2c-1.589,3.134-3.19,6.3-4.738,9.357l0,.006c-1.567,3.1-3.134,6.192-4.717,9.314l1.391,0h.217l1.516,0c1.182,0,2.092-.008,2.95-.025.283-.011.6-.363.723-.514,3.341-4.186,7.3-9.15,11.321-14.228a15.933,15.933,0,0,0,7.125,6.71A28.99,28.99,0,0,1,40.847,58ZM34.553,25.7h0A19.024,19.024,0,0,0,18.746,10.22c.507-.6,1.044-1.175,1.594-1.725A29,29,0,0,1,65.989,14.54,16.135,16.135,0,0,0,58.7,21.559C55.452,17.465,51.8,12.879,47.543,7.539c-.157-.187-.459-.5-.723-.514C45.717,7,44.628,7,43.8,7L42.311,7h-.006L40.746,7,50.2,25.692H46.622Z" transform="translate(540.154 232)" fill="#fff"/>
    <path id="Subtraction_5" data-name="Subtraction 5" d="M72.846,34a12,12,0,0,1-11.213-7.717,1.592,1.592,0,0,1,1.211-.47l.124,0c.622.018,1.292.027,2.05.027.812,0,1.637-.01,2.435-.02l.6-.007a3.565,3.565,0,0,0,3.765-3.547v-.02A3.563,3.563,0,0,0,68.052,18.7L67.5,18.7c-.812-.01-1.65-.021-2.475-.021-.761,0-1.435.009-2.06.028l-.124,0a1.622,1.622,0,0,1-1.347-.615A12,12,0,1,1,72.846,34Z" transform="translate(540.154 239)" fill="#fff"/>
  </g>
</svg>
